#N canvas 431 73 808 611 10;
#X floatatom 212 108 8 0 0 0 - - -, f 8;
#X floatatom 114 164 5 0 4 0 - - -, f 5;
#X obj 113 408 f;
#X floatatom 223 357 5 1 2000 0 - - -, f 5;
#X obj 591 76 r globalReset;
#X msg 591 99 0;
#X msg 591 121 40;
#X obj 113 381 spigot;
#X obj 146 333 tgl 15 0 empty empty empty 17 7 0 10 -262144 -1 -1 1
1;
#X obj 55 348 spigot;
#X obj 114 333 tgl 15 0 empty empty empty 17 7 0 10 -262144 -1 -1 0
1;
#X obj 213 129 bng 15 250 50 0 empty resetHue empty 17 7 0 10 -128128
-1 -1;
#X obj 114 309 t b b;
#X obj 114 288 loadbang;
#X floatatom 114 187 5 0 4 0 - - -, f 5;
#X floatatom 114 210 5 0 4 0 - - -, f 5;
#X floatatom 152 104 5 0 0 0 BLOCK #0-blockNum #0-blockNumX, f 5;
#X obj 380 24 loadbang;
#X obj 380 46 f \$0;
#X obj 380 68 s \$0-blockNum;
#X text 230 128 FLIP;
#X text 273 108 BASE;
#X text 153 163 SLOPE A;
#X text 153 186 SLOPE B;
#X text 153 209 SLOPE C;
#X obj 212 286 s baseHz;
#X obj 536 163 sel 0;
#X obj 346 206 spigot;
#X obj 346 183 r togglePistonHue;
#X obj 346 228 pack f \$0;
#X obj 536 231 f \$0;
#X obj 536 211 bng 15 250 50 0 empty empty empty 17 7 0 10 -262144
-1 -1;
#X obj 557 210 loadbang;
#X obj 592 145 s \$0-revHue;
#X msg 536 251 \; \$1-revHue color 20 22 0;
#X obj 113 122 cnv 15 70 36 empty empty empty 20 12 0 14 -1 -66577
0;
#X obj 118 129 tgl 24 0 empty \$0-revHue REV 29 13 1 15 -128128 -1
-128128 1 1;
#X msg 380 89 10;
#X obj 143 408 - 1;
#X obj 55 375 + 1;
#X text 167 253 interface^^^;
#X text 169 330 flip logic gate;
#X text 576 232 off color;
#X text 419 228 on color;
#X text 554 179 toggle sensor;
#X text 628 112 reset params;
#X text 426 49 initial params;
#X text 98 429 incrementer;
#X floatatom 114 231 5 0 4 0 - - -, f 5;
#X text 153 230 SLOPE D;
#X msg 380 132 100;
#X obj 195 406 t b f;
#X obj 195 453 -;
#X floatatom 195 475 5 0 0 0 - - -, f 5;
#X obj 114 355 metro 100;
#X floatatom 252 411 5 0 0 0 - - -, f 5;
#X obj 252 436 * 25;
#X obj 252 458 + 2;
#X floatatom 252 480 5 0 0 0 - - -, f 5;
#X obj 252 499 s logoHueSpeed;
#X obj 252 389 / 150;
#X msg 195 428 151;
#X obj 352 366 * 2;
#X obj 352 343 t b f;
#X obj 427 364 * 2;
#X obj 427 341 t b f;
#X obj 501 367 * 2;
#X obj 501 344 t b f;
#X obj 577 389 outlet;
#X obj 352 391 outlet;
#X obj 427 389 outlet;
#X obj 501 391 outlet;
#X text 345 409 piston 1;
#X text 420 407 piston 2;
#X text 493 410 piston 3;
#X text 567 410 piston 4;
#X obj 577 341 t b f;
#X obj 577 364 * 2;
#X msg 512 453 0 \$1;
#X msg 423 453 0 \$1;
#X obj 512 475 array set C;
#X obj 423 475 array set B;
#X msg 332 432 0 \$1;
#X obj 332 454 array set A;
#X msg 601 433 0 \$1;
#X obj 601 455 array set D;
#X msg 380 110 1;
#X obj 43 78 r globalSlope;
#X msg 346 284 \; \$2-torHue color 22 \$1 \$1;
#X msg 536 284 \; \$1-torHue color 22 0 0;
#X msg 347 251 \; \$2-revHue color \$1 22 \$1;
#X obj 212 157 cnv 15 100 60 empty empty empty 20 12 0 14 -233017 -66577
0;
#X obj 223 152 vsl 90 90 1 150 0 0 empty \$0-torHue THRUST 13 48 1
15 -1 -128128 -128128 5400 0;
#X obj 111 26 r slope1;
#X obj 186 36 r slope2;
#X obj 218 71 r slope4;
#X obj 143 61 r slope3;
#X connect 0 0 2 1;
#X connect 0 0 25 0;
#X connect 0 0 62 0;
#X connect 0 0 64 0;
#X connect 0 0 66 0;
#X connect 0 0 77 0;
#X connect 1 0 63 0;
#X connect 2 0 9 0;
#X connect 2 0 7 0;
#X connect 3 0 51 0;
#X connect 4 0 5 0;
#X connect 4 0 6 0;
#X connect 5 0 33 0;
#X connect 5 0 92 0;
#X connect 6 0 0 0;
#X connect 7 0 38 0;
#X connect 8 0 7 1;
#X connect 9 0 39 0;
#X connect 10 0 9 1;
#X connect 11 0 12 0;
#X connect 12 0 10 0;
#X connect 12 1 8 0;
#X connect 13 0 10 0;
#X connect 14 0 65 0;
#X connect 15 0 67 0;
#X connect 17 0 18 0;
#X connect 17 0 86 0;
#X connect 17 0 50 0;
#X connect 17 0 37 0;
#X connect 18 0 19 0;
#X connect 26 0 31 0;
#X connect 27 0 29 0;
#X connect 28 0 27 0;
#X connect 29 0 90 0;
#X connect 29 0 88 0;
#X connect 30 0 34 0;
#X connect 30 0 89 0;
#X connect 31 0 30 0;
#X connect 32 0 30 0;
#X connect 36 0 26 0;
#X connect 36 0 27 1;
#X connect 36 0 54 0;
#X connect 37 0 0 0;
#X connect 38 0 0 0;
#X connect 39 0 0 0;
#X connect 48 0 76 0;
#X connect 51 0 61 0;
#X connect 51 1 52 1;
#X connect 52 0 53 0;
#X connect 52 0 54 1;
#X connect 53 0 60 0;
#X connect 54 0 2 0;
#X connect 55 0 56 0;
#X connect 56 0 57 0;
#X connect 57 0 58 0;
#X connect 58 0 59 0;
#X connect 60 0 55 0;
#X connect 61 0 52 0;
#X connect 62 0 69 0;
#X connect 63 0 62 0;
#X connect 63 1 62 1;
#X connect 63 1 82 0;
#X connect 64 0 70 0;
#X connect 65 0 64 0;
#X connect 65 1 64 1;
#X connect 65 1 79 0;
#X connect 66 0 71 0;
#X connect 67 0 66 0;
#X connect 67 1 66 1;
#X connect 67 1 78 0;
#X connect 76 0 77 0;
#X connect 76 1 77 1;
#X connect 76 1 84 0;
#X connect 77 0 68 0;
#X connect 78 0 80 0;
#X connect 79 0 81 0;
#X connect 82 0 83 0;
#X connect 84 0 85 0;
#X connect 86 0 1 0;
#X connect 86 0 14 0;
#X connect 86 0 15 0;
#X connect 86 0 48 0;
#X connect 87 0 1 0;
#X connect 87 0 14 0;
#X connect 87 0 15 0;
#X connect 87 0 48 0;
#X connect 92 0 3 0;
#X connect 93 0 1 0;
#X connect 94 0 14 0;
#X connect 95 0 48 0;
#X connect 96 0 15 0;
#X coords 0 -1 1 1 230 150 2 100 100;
