#N canvas 562 96 859 522 10;
#N canvas 0 50 450 250 (subpatch) 0;
#X array SCOPE 1500 float 0;
#X coords 0 1 1499 -1 380 200 1 0 0;
#X restore 115 174 graph;
#X obj 362 404 array size SCOPE;
#X obj 61 471 dac~;
#X obj 60 408 catch~ sigL;
#X obj 138 455 catch~ sigR;
#X obj 419 455 s globalReset;
#X obj 419 116 bng 25 250 50 0 empty resetHue RESET 29 13 1 15 -3200
-1 -1;
#X obj 244 402 s globalFreq;
#X obj 153 158 tgl 15 0 empty empty empty 17 7 0 10 -13330 -1 -1 1
1;
#X obj 139 425 tabwrite~ SCOPE;
#X obj 153 27 loadbang;
#X text 330 158 ZOOM;
#X obj 562 233 unpack f f f;
#X floatatom 562 261 5 0 255 0 - - -, f 5;
#X floatatom 616 261 5 0 255 0 - - -, f 5;
#X floatatom 671 261 5 0 255 0 - - -, f 5;
#N canvas 505 209 606 448 rgbConversion 0;
#X obj 220 52 inlet;
#X obj 297 54 inlet;
#X obj 363 55 inlet;
#X obj 315 388 outlet;
#X text 225 27 red;
#X text 295 29 green;
#X text 367 29 blue;
#X obj 363 101 t b f;
#X obj 297 159 +;
#X obj 297 184 t b f;
#X obj 297 215 +;
#X obj 244 386 outlet;
#X obj 244 362 f;
#X obj 315 364 f;
#X obj 220 78 * -65536;
#X obj 297 79 * -256;
#X obj 363 79 * -1;
#X obj 297 246 - 1;
#X obj 121 185 loadbang;
#X obj 207 215 t b b;
#X msg 121 218 22;
#X obj 222 189 metro 40;
#X obj 205 166 tgl 15 0 empty empty empty 17 7 0 10 -262144 -1 -1 1
1;
#X connect 0 0 14 0;
#X connect 1 0 15 0;
#X connect 2 0 16 0;
#X connect 7 0 8 0;
#X connect 7 1 8 1;
#X connect 8 0 9 0;
#X connect 9 0 10 0;
#X connect 9 1 10 1;
#X connect 10 0 17 0;
#X connect 12 0 11 0;
#X connect 13 0 3 0;
#X connect 14 0 10 0;
#X connect 15 0 8 0;
#X connect 16 0 7 0;
#X connect 17 0 13 1;
#X connect 18 0 20 0;
#X connect 18 0 22 0;
#X connect 19 0 13 0;
#X connect 19 1 12 0;
#X connect 20 0 12 1;
#X connect 21 0 19 0;
#X connect 22 0 21 0;
#X restore 562 291 pd rgbConversion;
#X obj 562 208 canvas2;
#X obj 628 77 r logoHue;
#X obj 525 332 pack f f 22;
#X msg 525 359 \; logo color \$3 \$3 \$1;
#X obj 562 94 f;
#X obj 562 49 tgl 15 0 empty empty empty 17 7 0 10 -262144 -1 -1 1
1;
#X floatatom 562 185 5 0 0 0 - - -, f 5;
#X msg 498 393 \; resetHue color \$1 \$3 \$3;
#X obj 562 26 loadbang;
#X obj 718 68 r baseHz;
#X floatatom 718 110 5 0 0 0 - - -, f 5;
#X floatatom 718 196 5 0 0 0 - - -, f 5;
#X obj 718 151 min 1;
#X obj 718 283 + 10;
#X obj 718 173 * 100;
#X obj 718 260 -;
#X obj 718 215 t b f;
#X msg 718 238 100;
#X obj 718 305 min 100;
#X floatatom 718 327 5 0 0 0 - - -, f 5;
#X obj 718 90 abs;
#X obj 671 388 s togglePistonHue;
#X obj 718 128 / 30000;
#X obj 116 175 cnv 15 378 198 empty graphHue empty 20 12 0 14 -262144
-1 0;
#X obj 365 159 hsl 128 15 2 1500 0 0 empty empty empty -2 -8 0 10 -204800
-1 -1 12700 0;
#X obj 562 70 metro 20;
#X msg 362 43 1000;
#X obj 718 346 s speedSat;
#X msg 205 44 250;
#X text 95 477 output to speaker;
#X text 228 441 scope data;
#X text 358 423 zoom parameter;
#X text 230 44 initial params;
#X text 593 96 hue phase;
#X text 717 362 sat control;
#X obj 615 47 r logoHueSpeed;
#X obj 296 470 s globalSlope;
#X floatatom 205 122 5 0 4 0 - - -, f 5;
#X msg 205 72 1;
#X text 113 121 GLOBAL SLOPE;
#X obj 570 116 % 36000;
#X obj 562 161 / 100;
#X obj 562 138 + 150;
#X obj 256 138 bng 15 250 50 0 empty empty empty 17 7 0 10 -159808
-1 -1;
#X text 273 138 PHASE SYNC;
#X obj 16 180 s phaseSync;
#X floatatom 205 140 5 0 100 0 - - globalVol, f 5;
#X text 127 139 GLOBAL VOL;
#X text 113 103 GLOBAL RANGE;
#X obj 208 103 hsl 80 15 200 20000 1 0 empty empty empty -2 -8 0 10
-260097 -1 -1 4000 1;
#X obj 153 408 metro 40;
#X connect 3 0 2 0;
#X connect 3 0 9 0;
#X connect 4 0 2 1;
#X connect 4 0 9 0;
#X connect 6 0 5 0;
#X connect 8 0 67 0;
#X connect 10 0 8 0;
#X connect 10 0 45 0;
#X connect 10 0 55 0;
#X connect 12 0 13 0;
#X connect 12 1 14 0;
#X connect 12 2 15 0;
#X connect 13 0 16 0;
#X connect 14 0 16 1;
#X connect 15 0 16 2;
#X connect 16 0 19 1;
#X connect 16 1 19 0;
#X connect 16 1 38 0;
#X connect 17 0 12 0;
#X connect 18 0 21 1;
#X connect 19 0 20 0;
#X connect 19 0 24 0;
#X connect 21 0 59 0;
#X connect 22 0 42 0;
#X connect 23 0 17 0;
#X connect 25 0 22 0;
#X connect 25 0 43 0;
#X connect 26 0 37 0;
#X connect 27 0 39 0;
#X connect 28 0 33 0;
#X connect 29 0 31 0;
#X connect 30 0 35 0;
#X connect 31 0 28 0;
#X connect 32 0 30 0;
#X connect 33 0 34 0;
#X connect 33 1 32 1;
#X connect 34 0 32 0;
#X connect 35 0 36 0;
#X connect 36 0 17 1;
#X connect 36 0 44 0;
#X connect 37 0 27 0;
#X connect 39 0 29 0;
#X connect 41 0 1 0;
#X connect 42 0 21 0;
#X connect 43 0 41 0;
#X connect 45 0 66 0;
#X connect 52 0 42 1;
#X connect 54 0 53 0;
#X connect 55 0 54 0;
#X connect 57 0 21 1;
#X connect 58 0 23 0;
#X connect 59 0 57 0;
#X connect 59 0 58 0;
#X connect 60 0 62 0;
#X connect 66 0 7 0;
#X connect 67 0 9 0;
#X coords 0 -1 1 1 410 290 2 100 100;
