#N canvas 229 92 859 564 10;
#X obj 568 213 osc~;
#X obj 568 345 *~;
#X obj 623 344 *~;
#X obj 425 289 line~;
#X floatatom 113 178 5 0 100 0 - - -, f 5;
#X obj 567 294 *~;
#X obj 622 293 *~;
#X obj 113 141 hsl 128 15 -1832.55 1832.55 0 0 empty \$0-slideBar empty
-2 9 0 12 -1984 -1 -262144 6951 1;
#X msg 272 73 0;
#X floatatom 110 127 9 0 0 0 - - -, f 9;
#X text 549 291 L;
#X text 605 292 R;
#X obj 567 103 osc~;
#X floatatom 568 63 5 0 0 0 - - -, f 5;
#X obj 226 178 tgl 15 0 empty \$0-toggleHue empty 17 7 0 10 -262017
-1 -1 1 1;
#X obj 567 125 *~ 200;
#X obj 381 58 bng 15 250 50 0 empty empty empty 17 7 0 10 -258113 -1
-1;
#X obj 568 41 inlet;
#X text 399 58 RESET;
#X text 111 161 VOL;
#X obj 527 378 throw~ sigL;
#X obj 623 378 throw~ sigR;
#X floatatom 212 321 6 440 3520 0 - - -, f 6;
#X text 205 299 left-range-bound;
#X text 261 321 right-range-bound;
#X obj 161 297 * -1;
#X floatatom 161 178 5 0 0 0 - #0-range -, f 5;
#X obj 161 273 t f f f;
#X obj 161 321 t b f;
#X obj 708 119 +~ 1;
#X obj 708 141 *~ 0.5;
#X obj 626 214 *~ -1;
#X obj 626 236 +~ 1;
#X obj 568 149 snapshot~;
#X obj 337 79 tgl 15 0 empty empty empty 17 7 0 10 -262144 -1 -1 1
1;
#X obj 181 21 loadbang;
#X obj 381 15 r globalReset;
#X obj 78 15 r globalFreq;
#X text 158 161 RANGE;
#X obj 290 144 sel 0;
#X msg 322 202 50;
#X obj 322 174 t;
#X msg 107 38 250;
#X floatatom 110 313 5 0 0 0 - - -, f 5;
#X obj 161 344 pack 0 0 \$0;
#X msg 161 367 \; \$3-slideBar range \$1 \$2;
#X obj 110 289 / 250;
#X text 212 160 ON/OFF;
#X obj 337 99 metro 20;
#X obj 289 98 t b;
#N canvas 1085 222 467 439 colors 0;
#X obj 176 169 unpack f f f;
#X floatatom 158 203 5 0 255 0 - - -, f 5;
#X floatatom 208 203 5 0 255 0 - - -, f 5;
#X floatatom 257 203 5 0 255 0 - - -, f 5;
#N canvas 505 209 606 448 rgbConversion 0;
#X obj 220 52 inlet;
#X obj 297 54 inlet;
#X obj 363 55 inlet;
#X obj 315 388 outlet;
#X text 225 27 red;
#X text 295 29 green;
#X text 367 29 blue;
#X obj 363 101 t b f;
#X obj 297 159 +;
#X obj 297 184 t b f;
#X obj 297 215 +;
#X obj 244 386 outlet;
#X obj 244 362 f;
#X obj 315 364 f;
#X obj 220 78 * -65536;
#X obj 297 79 * -256;
#X obj 363 79 * -1;
#X obj 297 246 - 1;
#X obj 121 185 loadbang;
#X obj 207 215 t b b;
#X msg 121 218 22;
#X obj 202 185 r \$0-update;
#X connect 0 0 14 0;
#X connect 1 0 15 0;
#X connect 2 0 16 0;
#X connect 7 0 8 0;
#X connect 7 1 8 1;
#X connect 8 0 9 0;
#X connect 9 0 10 0;
#X connect 9 1 10 1;
#X connect 10 0 17 0;
#X connect 12 0 11 0;
#X connect 13 0 3 0;
#X connect 14 0 10 0;
#X connect 15 0 8 0;
#X connect 16 0 7 0;
#X connect 17 0 13 1;
#X connect 18 0 20 0;
#X connect 19 0 13 0;
#X connect 19 1 12 0;
#X connect 20 0 12 1;
#X connect 21 0 19 0;
#X restore 162 233 pd rgbConversion;
#X obj 187 266 pack f f 0 \$0;
#X obj 189 140 canvas2;
#X floatatom 147 104 5 0 0 0 - - -, f 5;
#X msg 117 289 \; \$4-slideBar color \$2 \$1 \$3;
#X obj 68 230 s \$0-update;
#X msg 87 202 0;
#X obj 77 179 t b b;
#X obj 58 145 r \$0-offBang;
#X obj 167 51 r \$0-backHue;
#X obj 312 90 r speedSat;
#X obj 252 84 inlet;
#X connect 0 0 1 0;
#X connect 0 1 2 0;
#X connect 0 2 3 0;
#X connect 1 0 4 0;
#X connect 2 0 4 1;
#X connect 3 0 4 2;
#X connect 4 0 5 0;
#X connect 4 1 5 1;
#X connect 5 0 8 0;
#X connect 6 0 0 0;
#X connect 7 0 6 0;
#X connect 10 0 1 0;
#X connect 10 0 2 0;
#X connect 10 0 3 0;
#X connect 11 0 9 0;
#X connect 11 1 10 0;
#X connect 12 0 11 0;
#X connect 13 0 7 0;
#X connect 14 0 6 1;
#X connect 15 0 6 2;
#X restore 110 442 pd colors;
#X obj 110 397 * 360;
#X obj 110 332 + 1;
#X obj 110 354 / 2;
#X floatatom 110 376 5 0 0 0 - - -, f 5;
#X obj 78 61 s \$0-range;
#X obj 290 229 s \$0-offBang;
#X msg 407 86 0.75;
#X obj 289 122 s \$0-update;
#X text 176 127 Hz;
#X text 109 105 PISTON;
#X floatatom 156 105 5 0 0 0 - #0-pNum #0-pNumX, f 5;
#X obj 181 42 f \$0;
#X obj 181 64 s \$0-pNum;
#X obj 110 419 s \$0-backHue;
#X obj 596 465 spigot;
#X obj 596 437 r togglePistonHue;
#X obj 596 487 pack f \$0;
#X msg 573 510 \; \$2-toggleHue color \$1 22 22;
#X obj 290 450 f \$0;
#X obj 290 432 bng 15 250 50 0 empty empty empty 17 7 0 10 -262144
-1 -1;
#X msg 353 467 \; \$1-toggleHue color 20 22 22;
#X obj 290 412 loadbang;
#X msg 290 501 \; \$1-slideBar color 22 22 22;
#X msg 50 161 0;
#X obj 272 255 s \$0-toggleHue;
#X obj 425 221 spigot;
#X obj 432 192 t f f;
#X text 201 178 Hz;
#X obj 567 81 / 100;
#X text 465 247 volume control;
#X text 526 174 reads ^^^^ piston phase;
#X text 653 292 piston amplitude control;
#X text 527 213 voice;
#X text 646 31 sync piston phase;
#X text 674 485 piston toggle hue;
#X text 232 41 load instance #;
#X text 66 464 compute piston bar hue;
#X text 250 346 sets hslider range;
#X text 451 82 curb shift speed;
#X text 491 41 shift freq;
#X text 578 395 output to dac;
#X text 325 449 off colors;
#X text 332 144 on/off sensor;
#X text 135 206 interface^^^;
#X obj 425 268 pack f 50;
#X obj 637 70 r phaseSync;
#X obj 14 105 r globalVol;
#X obj 425 246 / 500;
#X msg 614 32 0.75;
#X connect 0 0 5 0;
#X connect 0 0 6 0;
#X connect 1 0 20 0;
#X connect 2 0 21 0;
#X connect 3 0 2 1;
#X connect 3 0 1 1;
#X connect 4 0 76 0;
#X connect 4 0 50 0;
#X connect 5 0 1 0;
#X connect 6 0 2 0;
#X connect 7 0 9 0;
#X connect 7 0 49 0;
#X connect 8 0 4 0;
#X connect 8 0 34 0;
#X connect 8 0 7 0;
#X connect 8 0 39 0;
#X connect 8 0 75 0;
#X connect 9 0 46 0;
#X connect 12 0 15 0;
#X connect 12 0 29 0;
#X connect 13 0 79 0;
#X connect 14 0 39 0;
#X connect 14 0 34 0;
#X connect 14 0 65 1;
#X connect 14 0 77 0;
#X connect 15 0 0 0;
#X connect 15 0 33 0;
#X connect 16 0 8 0;
#X connect 17 0 13 0;
#X connect 22 0 44 1;
#X connect 25 0 28 0;
#X connect 26 0 46 1;
#X connect 26 0 27 0;
#X connect 27 0 25 0;
#X connect 27 1 22 0;
#X connect 27 2 15 1;
#X connect 28 0 44 0;
#X connect 28 1 44 0;
#X connect 29 0 30 0;
#X connect 30 0 31 0;
#X connect 30 0 6 1;
#X connect 31 0 32 0;
#X connect 32 0 5 1;
#X connect 33 0 7 0;
#X connect 34 0 48 0;
#X connect 35 0 42 0;
#X connect 35 0 62 0;
#X connect 36 0 99 0;
#X connect 36 0 16 0;
#X connect 37 0 55 0;
#X connect 39 0 56 0;
#X connect 39 0 70 0;
#X connect 39 0 74 0;
#X connect 39 1 41 0;
#X connect 39 1 57 0;
#X connect 40 0 4 0;
#X connect 41 0 40 0;
#X connect 42 0 55 0;
#X connect 43 0 52 0;
#X connect 44 0 45 0;
#X connect 46 0 43 0;
#X connect 48 0 33 0;
#X connect 48 0 58 0;
#X connect 49 0 58 0;
#X connect 51 0 64 0;
#X connect 52 0 53 0;
#X connect 53 0 54 0;
#X connect 54 0 51 0;
#X connect 57 0 12 1;
#X connect 57 0 0 1;
#X connect 62 0 63 0;
#X connect 65 0 67 0;
#X connect 66 0 65 0;
#X connect 67 0 68 0;
#X connect 69 0 71 0;
#X connect 69 0 73 0;
#X connect 70 0 69 0;
#X connect 72 0 69 0;
#X connect 74 0 4 0;
#X connect 74 0 9 0;
#X connect 76 0 98 0;
#X connect 77 0 39 0;
#X connect 77 1 76 1;
#X connect 79 0 12 0;
#X connect 95 0 3 0;
#X connect 96 0 99 0;
#X connect 97 0 4 0;
#X connect 98 0 95 0;
#X connect 99 0 12 1;
#X connect 99 0 0 1;
#X coords 0 -1 1 1 160 100 2 100 100;
